<?xml version="1.0" standalone="no"?>
<!DOCTYPE svg PUBLIC "-//W3C//DTD SVG 20010904//EN"
 "http://www.w3.org/TR/2001/REC-SVG-20010904/DTD/svg10.dtd">
<svg version="1.0" xmlns="http://www.w3.org/2000/svg"
 width="2048.000000pt" height="1823.000000pt" viewBox="0 0 2048.000000 1823.000000"
 preserveAspectRatio="xMidYMid meet">

<g transform="translate(0.000000,1823.000000) scale(0.100000,-0.100000)"
fill="#000000" stroke="none">
<path d="M9535 10728 c-27 -5 -104 -24 -170 -43 -66 -18 -195 -52 -286 -74
-245 -60 -495 -164 -642 -268 -45 -31 -118 -82 -162 -112 -46 -30 -138 -113
-215 -190 -141 -141 -161 -166 -202 -241 -14 -25 -40 -72 -58 -105 -47 -85
-58 -102 -110 -170 -99 -129 -191 -297 -300 -545 -46 -104 -165 -480 -184
-578 -9 -45 -23 -118 -31 -161 -8 -44 -29 -202 -46 -353 -28 -247 -30 -294
-26 -503 8 -378 32 -598 113 -1020 19 -97 71 -282 119 -424 19 -58 35 -110 35
-116 0 -8 -22 -9 -76 -3 -91 10 -175 -2 -235 -33 -44 -22 -310 -272 -388 -366
-25 -29 -46 -51 -48 -49 -2 2 17 59 42 127 26 68 52 149 60 179 16 69 49 190
70 255 37 120 75 350 75 459 0 43 -7 126 -16 184 -8 58 -13 115 -10 127 8 33
-13 97 -42 128 -14 15 -50 43 -79 62 -29 19 -78 51 -108 71 -66 44 -134 61
-270 70 -112 7 -179 -5 -320 -59 -68 -26 -90 -40 -151 -101 -128 -128 -169
-250 -162 -479 3 -113 6 -127 36 -192 18 -38 50 -92 71 -120 60 -79 71 -107
71 -180 0 -69 -32 -227 -73 -355 -13 -41 -36 -118 -52 -170 -16 -52 -44 -131
-63 -175 -18 -44 -47 -114 -62 -155 -15 -42 -39 -98 -53 -125 -106 -215 -163
-326 -187 -360 -35 -51 -168 -289 -187 -334 -8 -18 -24 -50 -37 -70 -20 -32
-39 -74 -104 -221 -68 -154 -106 -426 -73 -522 16 -49 88 -112 148 -129 75
-22 195 -16 293 13 47 15 121 36 165 47 368 99 485 143 734 277 106 57 195
104 197 104 2 0 -12 -42 -31 -93 -71 -197 -157 -542 -204 -822 -16 -93 -43
-235 -60 -315 -16 -80 -42 -233 -56 -340 -15 -107 -37 -262 -50 -345 -13 -82
-31 -229 -40 -325 -8 -96 -22 -240 -30 -319 -9 -79 -20 -234 -25 -345 -5 -111
-12 -230 -15 -266 -2 -36 -6 -156 -7 -266 -2 -175 0 -205 15 -227 9 -15 17
-35 17 -47 0 -19 6 -20 105 -20 l105 0 0 35 c0 18 7 60 15 92 24 93 21 120
-22 160 l-36 35 7 131 c4 73 11 226 16 342 5 116 14 255 20 310 5 55 19 195
30 310 11 116 29 269 40 340 11 72 36 247 56 390 19 143 47 309 61 370 13 60
40 198 58 305 46 264 141 633 210 816 31 82 67 181 79 219 13 39 37 92 54 119
35 55 38 72 20 111 -15 34 -57 55 -108 55 -34 0 -47 -6 -71 -32 -80 -90 -121
-125 -199 -170 -138 -81 -380 -211 -455 -245 -75 -34 -300 -104 -510 -159 -71
-19 -156 -41 -189 -50 -38 -10 -74 -14 -102 -9 l-44 6 0 64 c0 121 36 256 112
425 37 81 210 404 241 450 44 64 225 413 254 490 13 35 33 83 44 107 10 23 19
45 19 48 0 3 13 34 30 69 16 35 52 141 80 237 28 95 53 176 56 180 2 4 18 67
35 141 39 166 43 278 12 355 -11 28 -45 87 -75 130 -92 131 -92 129 -85 279 6
150 20 194 83 264 46 51 108 83 201 106 60 14 85 15 172 6 97 -10 105 -13 185
-63 l84 -53 6 -61 c3 -33 9 -135 12 -226 5 -145 3 -179 -16 -275 -32 -159
-103 -414 -173 -614 -67 -196 -284 -649 -360 -756 -28 -39 -46 -75 -49 -102
-3 -23 -16 -55 -28 -72 -53 -74 -13 -165 71 -165 37 0 47 6 89 52 52 57 151
187 282 374 161 229 623 727 691 744 15 4 65 5 111 4 l85 -4 55 -54 c30 -29
69 -81 86 -114 18 -34 47 -79 66 -101 23 -27 34 -50 34 -71 0 -40 24 -74 66
-91 48 -20 79 -17 112 11 57 48 47 138 -31 274 -24 42 -56 105 -71 141 -16 36
-39 89 -52 117 -71 158 -195 568 -224 743 -6 36 -20 108 -30 160 -10 52 -24
151 -30 220 -6 69 -15 164 -20 211 -6 47 -10 209 -10 360 0 238 4 307 30 529
40 347 65 465 154 727 97 286 229 564 335 702 72 94 139 202 196 314 21 41 70
100 165 196 112 115 161 155 290 243 85 58 169 112 186 121 108 55 324 131
501 176 109 27 239 62 288 76 78 23 115 27 276 32 197 6 310 -3 484 -38 125
-25 175 -41 295 -94 52 -23 115 -50 140 -61 159 -66 423 -227 553 -337 256
-217 531 -464 596 -537 l75 -82 -45 7 c-42 7 -212 45 -698 155 -247 57 -267
57 -296 -1 -22 -41 -18 -74 11 -108 30 -36 82 -52 352 -107 26 -5 28 -16 8
-47 -8 -12 -20 -47 -27 -77 -7 -30 -18 -62 -25 -70 -7 -8 -12 -29 -12 -46 1
-16 -6 -45 -15 -64 -9 -19 -21 -55 -28 -80 -7 -25 -19 -53 -27 -63 -14 -16
-13 -20 7 -48 13 -17 21 -33 18 -35 -2 -2 -31 2 -63 11 -32 8 -91 18 -131 22
-70 6 -72 5 -102 -25 -37 -37 -41 -86 -11 -125 23 -29 54 -40 155 -57 39 -6
149 -32 245 -57 283 -73 561 -134 622 -136 51 -1 61 2 85 26 21 20 28 37 28
67 0 66 -29 85 -170 115 -167 36 -191 39 -199 26 -4 -6 -24 -11 -44 -11 l-37
1 27 15 c34 18 58 62 58 106 0 35 47 138 63 138 15 0 -1 -65 -30 -121 -22 -45
-24 -54 -12 -75 18 -35 37 -29 48 14 51 202 52 222 16 222 -21 0 -24 3 -16 18
20 37 61 135 61 147 0 6 7 25 15 42 17 33 30 35 186 18 52 -5 82 -4 97 4 19
10 24 7 46 -27 48 -77 125 -221 249 -467 93 -186 131 -272 147 -335 51 -209
49 -424 -10 -840 -50 -350 -96 -550 -185 -790 -123 -333 -175 -469 -203 -535
-78 -185 -176 -393 -210 -445 -20 -32 -143 -166 -272 -297 -213 -217 -244
-245 -331 -296 -53 -31 -117 -61 -143 -68 -80 -20 -112 -94 -66 -152 48 -61
127 -53 265 25 133 75 204 128 284 214 l72 77 77 2 c122 3 225 38 457 158 59
30 289 193 340 241 100 94 395 409 478 511 111 135 169 223 284 430 115 208
140 265 170 393 27 117 55 228 84 337 16 57 21 117 25 315 7 369 21 439 103
512 58 51 114 77 167 78 39 0 44 -3 74 -50 52 -81 59 -121 61 -333 3 -244 -6
-291 -78 -426 -86 -162 -102 -212 -157 -486 -8 -38 -20 -122 -26 -185 -6 -63
-18 -146 -25 -185 -18 -92 -40 -223 -60 -360 -17 -118 -82 -398 -117 -505 -31
-95 -133 -327 -163 -370 -60 -87 -373 -366 -465 -416 -73 -39 -146 -89 -350
-239 -91 -67 -210 -151 -265 -186 -176 -115 -332 -269 -449 -444 -41 -61 -97
-167 -158 -300 -71 -155 -83 -183 -123 -285 -20 -52 -63 -151 -95 -220 -55
-117 -68 -159 -128 -405 -11 -44 -50 -183 -87 -310 -99 -341 -152 -538 -175
-650 -12 -55 -38 -181 -60 -280 -21 -99 -53 -252 -70 -340 -17 -88 -42 -205
-56 -260 -14 -55 -39 -167 -55 -250 -16 -82 -38 -184 -49 -225 -22 -82 -67
-319 -80 -418 -13 -103 -13 -103 94 -100 l91 3 12 70 c31 181 57 310 83 425
16 69 38 175 50 235 12 61 34 160 50 220 15 61 42 184 59 275 18 91 41 208 52
260 11 52 36 169 55 260 32 153 91 384 134 525 10 33 30 105 45 160 15 55 43
149 62 210 19 60 43 150 54 200 33 159 49 208 98 311 27 56 70 153 94 215 62
157 238 515 277 564 18 22 39 54 47 70 39 77 198 230 316 303 32 20 165 114
295 209 130 94 278 196 328 225 109 62 231 164 406 339 121 121 129 131 181
240 134 276 212 540 268 903 31 198 37 234 54 326 8 47 22 144 30 215 15 142
53 327 84 418 11 32 40 92 63 135 90 158 106 226 115 457 8 242 -18 384 -94
510 -76 126 -115 149 -247 143 -80 -3 -100 -8 -166 -40 -121 -59 -220 -159
-255 -258 -33 -93 -47 -218 -55 -482 -7 -264 -8 -269 -43 -400 -20 -73 -45
-173 -56 -223 -24 -105 -88 -239 -217 -455 -104 -175 -229 -331 -430 -539 -83
-86 -166 -173 -183 -193 -56 -64 -278 -218 -403 -280 -65 -32 -121 -58 -124
-58 -4 0 10 18 30 41 59 64 105 143 178 304 38 82 73 159 78 170 32 68 66 152
95 230 19 50 61 162 95 250 151 394 200 584 259 1005 54 380 63 558 35 747
-26 183 -62 280 -221 592 -280 550 -397 707 -761 1023 -103 89 -232 202 -286
251 -153 137 -428 312 -624 398 -53 23 -131 57 -172 77 -146 67 -334 117 -540
142 -103 12 -446 11 -515 -2z m1737 -2009 c43 -13 76 -24 74 -26 -7 -7 -186
40 -186 49 0 5 8 7 18 4 9 -2 52 -15 94 -27z"/>
<path d="M8619 9766 c-14 -8 -32 -29 -39 -45 -26 -63 13 -118 104 -147 48 -15
64 -16 101 -6 34 9 92 8 267 -4 122 -8 227 -19 232 -24 6 -6 4 -20 -4 -37 -13
-27 -25 -113 -34 -238 -2 -33 -10 -94 -17 -135 l-14 -75 -70 1 c-38 0 -154 4
-257 9 l-186 8 -31 -31 c-56 -56 -32 -140 47 -162 20 -5 71 -10 112 -10 89 0
366 -24 534 -46 108 -14 197 -29 475 -80 94 -17 129 -13 159 19 30 32 36 70
18 106 -20 37 -55 57 -119 66 -26 4 -54 14 -62 21 -7 8 -23 14 -35 14 -39 0
-45 39 -14 106 25 56 30 74 33 136 0 15 9 35 19 45 23 23 44 95 37 126 -4 16
0 29 14 41 26 24 26 31 0 57 -24 24 -17 39 12 21 25 -16 187 -52 261 -59 54
-4 60 -3 88 25 21 21 30 40 30 63 0 41 -33 94 -68 107 -38 14 -357 58 -602 81
-567 55 -945 73 -991 47z"/>
<path d="M9750 8438 c-94 -27 -125 -78 -228 -383 -77 -228 -111 -348 -148
-524 -13 -62 -34 -136 -47 -165 -35 -75 -218 -300 -375 -461 -188 -192 -223
-265 -160 -332 12 -13 36 -26 55 -29 18 -3 33 -11 33 -18 0 -6 -36 -60 -80
-121 -133 -182 -140 -195 -140 -241 0 -35 5 -47 31 -68 17 -14 41 -26 54 -26
20 0 25 -7 31 -35 7 -41 54 -85 90 -85 36 0 78 24 94 56 23 43 291 286 351
318 123 67 384 249 495 346 l54 47 143 7 c78 3 216 2 306 -3 250 -13 290 0
437 146 75 74 138 171 159 243 4 14 30 79 57 145 59 138 100 296 117 445 7 58
19 146 26 195 45 294 25 378 -89 380 -22 0 -55 8 -73 17 -38 21 -228 74 -338
94 -44 8 -163 19 -265 24 -102 5 -230 16 -285 24 -111 18 -252 19 -305 4z
m330 -208 c30 -6 141 -15 245 -20 105 -5 217 -14 250 -20 69 -13 228 -54 269
-69 15 -6 38 -11 52 -11 23 0 24 -3 24 -59 0 -32 -4 -80 -9 -107 -5 -27 -14
-96 -21 -154 -19 -180 -54 -335 -100 -434 -15 -34 -44 -104 -64 -156 -46 -117
-71 -154 -149 -222 l-61 -53 -331 -1 c-383 0 -395 -3 -501 -97 -101 -90 -300
-231 -471 -332 -45 -26 -111 -75 -147 -107 -36 -33 -66 -57 -66 -54 0 4 12 25
27 49 56 90 117 159 171 195 66 44 87 78 77 129 -8 44 -55 93 -88 93 -36 0
-40 11 -13 39 74 79 289 362 319 419 35 68 54 128 87 282 10 47 29 128 44 180
34 125 163 499 178 518 11 12 31 14 118 9 58 -4 130 -11 160 -17z"/>
</g>
</svg>
